Coordinates
version=1
nRows=16
nColumns=36
inDegrees=yes

Units are S.I. units (second, meters, Newtons, ...)
If the header above contains a line with 'inDegrees', this indicates whether rotational values are in degrees (yes) or radians (no).

endheader
time	pelvis_tilt	pelvis_list	pelvis_rotation	pelvis_tx	pelvis_ty	pelvis_tz	hip_flexion_r	hip_adduction_r	hip_rotation_r	knee_angle_r	knee_angle_r_beta	ankle_angle_r	subtalar_angle_r	mtp_angle_r	hip_flexion_l	hip_adduction_l	hip_rotation_l	knee_angle_l	knee_angle_l_beta	ankle_angle_l	subtalar_angle_l	mtp_angle_l	lumbar_extension	lumbar_bending	lumbar_rotation	arm_flex_r	arm_add_r	arm_rot_r	elbow_flex_r	pro_sup_r	arm_flex_l	arm_add_l	arm_rot_l	elbow_flex_l	pro_sup_l
      0.00000000	      0.97854793	      1.29070333	      5.41117635	     -0.10495993	      1.39563924	     -0.11765890	     -2.70266945	     -3.94482206	     -0.32782110	      7.34646483	      0.12822000	     10.25094517	     -6.02488683	     -6.35062449	     -2.09415965	      0.08665135	     -1.61911018	      7.48296943	      0.13060245	     14.79611618	      1.66582631	     -6.35062449	     -9.80173794	     -1.05650052	     -3.59307969	     14.10674550	    -12.98180391	     19.40795779	     23.11828658	     94.68157932	      5.01889093	    -15.11929387	     10.50154932	     22.33024773	     90.95729126
      0.01666670	      0.95275657	      1.61702769	      4.68777301	     -0.10684126	      1.39636179	     -0.11635446	     -3.57937314	     -4.43101785	     -0.64611116	      5.57932162	      0.09737753	     10.96532813	     -5.21267873	     -6.45989968	     -3.67607549	      0.74272584	     -2.61044894	      4.64418139	      0.08105626	     14.36937001	      4.53537578	     -6.45989968	     -8.79901986	     -1.22449498	     -3.47893214	     16.45918056	    -12.89246567	     25.89421542	     20.34184487	     99.37915187	      4.18877986	    -15.67069452	     14.07971517	     22.60360344	     92.89123529
      0.03333330	      2.06290087	      1.77143273	      4.45719750	     -0.10766573	      1.39744629	     -0.11483557	     -4.36341121	     -4.66797276	     -0.72516566	      6.04690154	      0.10553834	     11.99425477	     -4.20962671	     -6.50874333	     -5.23457690	      0.96469531	     -2.81880461	      3.92793628	      0.06855542	     13.76137655	      4.47133702	     -6.50874333	    -10.07432571	     -1.36183994	     -3.67886127	     16.76672571	    -12.96508933	     26.60204914	     20.75447930	     99.51008872	      4.76984916	    -15.99311733	     14.45291019	     22.95696449	     92.41540397
      0.05000000	      2.29951965	      1.86302474	      4.26717970	     -0.10907332	      1.39782462	     -0.11482247	     -3.95500279	     -4.87145272	     -1.31688259	      6.66458274	      0.11631891	     12.75425802	     -3.63144418	     -6.66893554	     -5.47254541	      1.25459439	     -2.74804900	      3.81188257	      0.06652990	     14.02047201	      4.60707807	     -6.66893554	    -10.65981331	     -1.30049073	     -4.02619160	     17.10957219	    -13.13704185	     27.56680825	     21.28458793	     97.94564018	      4.60557323	    -16.44111829	     15.19584578	     23.64650770	     89.76076283
      0.06666670	      2.02038084	      1.97619208	      3.77129451	     -0.10934010	      1.39742457	     -0.11381834	     -2.93190535	     -5.03853659	     -1.51386597	      7.36681409	      0.12857516	     13.80531174	     -2.94658787	     -6.87371086	     -4.84921981	      1.63912000	     -2.17670799	      4.08519893	      0.07130017	     14.42805614	      4.37025208	     -6.87371086	    -10.33097530	     -1.47149785	     -4.24018138	     17.69270319	    -12.95302879	     29.33253133	     20.32050639	     95.29528416	      4.56684829	    -16.82189265	     16.84858535	     23.67782139	     85.93881488
      0.08333330	      1.55443621	      1.91501517	      3.66386862	     -0.10977078	      1.39687282	     -0.11379257	     -2.09681438	     -4.93183709	     -1.80016373	      7.90246443	      0.13792402	     14.19657883	     -2.78234026	     -6.97661048	     -4.14724502	      1.75129780	     -1.54124768	      4.10348611	      0.07161934	     14.48531517	      4.03682147	     -6.97661048	     -9.84060380	     -1.41647956	     -4.48846647	     17.86510142	    -12.92838097	     30.02049856	     20.11273117	     94.71052325	      4.21896237	    -17.22901669	     18.11271940	     24.07194303	     83.98089406
      0.10000000	      1.19352249	      1.88147698	      3.52175628	     -0.10911234	      1.39311338	     -0.11316603	     -1.61809680	     -4.85766151	     -2.14755696	      8.21354867	      0.14335347	     14.41157762	     -2.65456457	     -6.95298476	     -3.82893038	      1.81491484	     -1.33493019	      3.81419536	      0.06657027	     14.71781877	      4.48057318	     -6.95298476	     -9.51067617	     -1.43260081	     -4.45513761	     17.41425002	    -13.14791253	     29.39282929	     21.24211995	     93.45208993	      3.68944899	    -17.52369937	     17.99129402	     25.10349680	     82.57547722
      0.11666670	      0.71190073	      1.82163723	      3.33917232	     -0.10908867	      1.39249857	     -0.11317568	     -0.89773469	     -4.76354273	     -2.28847947	      8.71958030	      0.15218539	     14.61702524	     -2.67896297	     -6.99632806	     -3.20327250	      1.84076657	     -0.81542228	      3.94142267	      0.06879080	     14.90077453	      4.40284485	     -6.99632806	     -8.91979924	     -1.48153583	     -4.47005303	     17.36348238	    -13.08046056	     29.47101945	     21.16308528	     92.42268286	      3.41896379	    -17.72469640	     18.40379673	     25.23512123	     81.59905998
      0.13333330	      0.15366386	      1.77098674	      3.57125823	     -0.10788604	      1.39228157	     -0.11291551	     -0.24772868	     -4.72792581	     -2.90451049	      8.98364559	      0.15679419	     14.82546074	     -2.37515299	     -7.13376593	     -2.61436969	      1.79531004	     -0.50001701	      3.85424015	      0.06726918	     14.99563724	      4.70886332	     -7.13376593	     -8.19685966	     -1.47449352	     -4.95376987	     17.52114499	    -12.56838471	     30.10204645	     20.03202213	     88.93505240	      3.42386634	    -17.95204098	     20.27968604	     24.80106561	     78.37632881
      0.15000000	     -0.12366207	      1.68825831	      3.66571284	     -0.10812075	      1.39540890	     -0.11319995	     -0.01383329	     -4.58442123	     -3.02943641	      8.98779677	      0.15686665	     14.86514812	     -2.55699284	     -7.19579843	     -2.32606737	      1.70331080	     -0.39511476	      3.77562818	      0.06589714	     14.79456110	      4.54670374	     -7.19579843	     -7.84608231	     -1.45565271	     -5.11370124	     17.50340034	    -12.40067490	     30.56761941	     19.75855946	     88.36065467	      3.50736137	    -18.23066899	     22.28759826	     24.92018536	     77.51810417
      0.16666670	     -0.23301342	      1.68307140	      3.69599740	     -0.10720701	      1.39585654	     -0.11281143	      0.16981951	     -4.55563249	     -3.18364347	      9.19242495	      0.16043808	     14.72176132	     -2.72409666	     -7.24495856	     -2.25493986	      1.69502055	     -0.37412425	      3.71589409	      0.06485459	     14.73009810	      4.47864066	     -7.24495856	     -7.94562850	     -1.55307408	     -5.16213666	     17.11297248	    -12.60380321	     30.44170165	     20.86774341	     85.98703779	      3.26255637	    -18.58379586	     22.68186153	     25.94892749	     75.59859010
      0.18333330	     -0.43810556	      1.66147328	      3.66398181	     -0.10790482	      1.39554608	     -0.11309851	      0.42209778	     -4.55902382	     -3.41052315	      9.33139964	      0.16286365	     14.80948100	     -2.62490083	     -7.28705412	     -2.04091782	      1.67970476	     -0.28559338	      3.77034868	      0.06580500	     14.90022852	      4.78182168	     -7.28705412	     -7.49849992	     -1.56711887	     -5.18163808	     17.18463158	    -12.35299554	     30.88751268	     19.93507401	     85.27635473	      3.35551964	    -18.59384951	     24.26815850	     25.46625659	     74.94647045
      0.20000000	     -0.42312460	      1.58374168	      3.56227413	     -0.10730401	      1.39858950	     -0.11275006	      0.48942896	     -4.46538590	     -3.45569078	      9.54918667	      0.16666475	     14.86113418	     -2.66747755	     -7.33303954	     -1.99079863	      1.60253532	     -0.17462614	      3.89092311	      0.06790942	     15.08227615	      5.04018121	     -7.33303954	     -7.52210517	     -1.52053355	     -5.04215845	     17.14517593	    -12.42217762	     31.17286943	     20.09690114	     84.05870260	      3.30205749	    -18.74595268	     25.37331697	     25.76297558	     73.99157564
      0.21666670	     -0.44105622	      1.58458606	      3.56592542	     -0.10809659	      1.39211476	     -0.11309980	      0.54901596	     -4.48298583	     -3.66873605	      9.78494963	      0.17077959	     14.87755662	     -2.83131996	     -7.31814239	     -1.93557209	      1.64212148	      0.01771798	      3.91357888	      0.06830484	     15.11591733	      5.04518153	     -7.31814239	     -7.54417413	     -1.48691952	     -5.10574277	     17.18439606	    -12.32331694	     30.50183152	     20.21324198	     85.58528809	      3.12368337	    -18.88812682	     25.75618932	     26.18921853	     74.80614657
      0.23333330	     -0.43556910	      1.53010115	      3.66827165	     -0.10760631	      1.39545843	     -0.11291637	      0.53630375	     -4.43770173	     -3.88193657	      9.95402300	      0.17373048	     14.86808482	     -2.98516164	     -7.35304604	     -1.90491453	      1.57064642	     -0.00089656	      3.92322663	      0.06847322	     15.13868246	      5.33512677	     -7.35304604	     -7.63701659	     -1.42106324	     -5.24018294	     17.21818026	    -12.29464895	     30.72143634	     20.32527050	     84.82941878	      3.05620930	    -19.04903020	     26.45854457	     26.47245537	     74.20487049
      0.25000000	     -0.39519134	      1.51903463	      3.71335000	     -0.10840858	      1.39548471	     -0.11318271	      0.65730477	     -4.45778668	     -4.04647175	     10.17113621	      0.17751982	     14.93291778	     -3.10336212	     -7.36977871	     -1.96383448	      1.56647846	      0.14489115	      3.98157254	      0.06949155	     15.24900636	      5.61310280	     -7.36977871	     -7.79475599	     -1.36228550	     -5.48074344	     17.36010769	    -12.18903623	     30.82900140	     20.42773887	     83.96124353	      2.87576822	    -19.19559428	     26.77094260	     26.84103554	     73.57848010
